<svg width="162" height="48" viewBox="0 0 162 48" fill="none" xmlns="http://www.w3.org/2000/svg">
<path d="M42.0001 24.14V26C41.9951 34.8574 36.1647 42.6564 27.6708 45.1678C19.1769 47.6792 10.0429 44.3046 5.22202 36.8742C0.401146 29.4437 1.04184 19.7273 6.79666 12.9942C12.5515 6.26103 22.0495 4.11507 30.1401 7.72002" stroke="#0A1323" stroke-width="4" stroke-linecap="round" stroke-linejoin="round"/>
<path d="M44 8L22 30L16 24" stroke="#0A1323" stroke-width="4" stroke-linecap="round" stroke-linejoin="round"/>
<path d="M60.9545 18.196H66.3494V33H69.4858V18.196H74.8807V15.5455H60.9545V18.196ZM80.7608 33.2557C84.596 33.2557 87.0335 30.554 87.0335 26.5057C87.0335 22.4489 84.596 19.7386 80.7608 19.7386C76.9255 19.7386 74.488 22.4489 74.488 26.5057C74.488 30.554 76.9255 33.2557 80.7608 33.2557ZM80.7778 30.7841C78.6557 30.7841 77.6159 28.892 77.6159 26.4972C77.6159 24.1023 78.6557 22.1847 80.7778 22.1847C82.8659 22.1847 83.9057 24.1023 83.9057 26.4972C83.9057 28.892 82.8659 30.7841 80.7778 30.7841ZM94.0301 33.2301C96.2801 33.2301 97.2943 31.892 97.7801 30.9375H97.9676V33H101.002V15.5455H97.9079V22.0739H97.7801C97.3113 21.1278 96.3482 19.7386 94.0386 19.7386C91.013 19.7386 88.6352 22.108 88.6352 26.4716C88.6352 30.7841 90.9448 33.2301 94.0301 33.2301ZM94.8909 30.6989C92.8539 30.6989 91.7801 28.9091 91.7801 26.4545C91.7801 24.017 92.8369 22.2699 94.8909 22.2699C96.8766 22.2699 97.9676 23.9148 97.9676 26.4545C97.9676 28.9943 96.8596 30.6989 94.8909 30.6989ZM109.52 33.2557C113.355 33.2557 115.792 30.554 115.792 26.5057C115.792 22.4489 113.355 19.7386 109.52 19.7386C105.684 19.7386 103.247 22.4489 103.247 26.5057C103.247 30.554 105.684 33.2557 109.52 33.2557ZM109.537 30.7841C107.414 30.7841 106.375 28.892 106.375 26.4972C106.375 24.1023 107.414 22.1847 109.537 22.1847C111.625 22.1847 112.664 24.1023 112.664 26.4972C112.664 28.892 111.625 30.7841 109.537 30.7841ZM119.488 33L120.929 28.696H127.491L128.94 33H132.315L126.162 15.5455H122.258L116.113 33H119.488ZM121.781 26.1562L124.142 19.125H124.278L126.639 26.1562H121.781ZM133.998 37.9091H137.083V30.9375H137.211C137.697 31.892 138.711 33.2301 140.961 33.2301C144.046 33.2301 146.356 30.7841 146.356 26.4716C146.356 22.108 143.978 19.7386 140.952 19.7386C138.643 19.7386 137.68 21.1278 137.211 22.0739H137.032V19.9091H133.998V37.9091ZM137.023 26.4545C137.023 23.9148 138.114 22.2699 140.1 22.2699C142.154 22.2699 143.211 24.017 143.211 26.4545C143.211 28.9091 142.137 30.6989 140.1 30.6989C138.131 30.6989 137.023 28.9943 137.023 26.4545ZM148.518 37.9091H151.603V30.9375H151.731C152.217 31.892 153.231 33.2301 155.481 33.2301C158.566 33.2301 160.876 30.7841 160.876 26.4716C160.876 22.108 158.498 19.7386 155.472 19.7386C153.163 19.7386 152.2 21.1278 151.731 22.0739H151.552V19.9091H148.518V37.9091ZM151.543 26.4545C151.543 23.9148 152.634 22.2699 154.62 22.2699C156.674 22.2699 157.731 24.017 157.731 26.4545C157.731 28.9091 156.657 30.6989 154.62 30.6989C152.651 30.6989 151.543 28.9943 151.543 26.4545Z" fill="#0A1323"/>
</svg>
